<svg version="1" xmlns="http://www.w3.org/2000/svg" width="933.333" height="933.333" viewBox="0 0 700.000000 700.000000"><path d="M302.9 31.9c-5.7 3.2-13.1 7.6-16.5 9.7-5.4 3.6-7.3 4.2-18 5.7-102 15.2-192.8 82.2-236.9 175.2C7.5 272.9-3.1 329.1 1 383.1 7.7 468.9 48.1 547 114.6 602.6c9.6 8 27.4 20.8 28 20.1.3-.3 8.8-49.7 18.9-109.8 10.1-60.2 19-112.3 19.9-115.9.8-3.6 2.9-10.6 4.6-15.5 16.4-46.1 54.8-82.5 101.5-96 20.1-5.8 16.3-5.6 132.5-6.5 73.6-.6 109.7-1.3 114.5-2.1 33.8-5.6 62.2-28.6 73.4-59.6 3.4-9.3 3.8-8.8-6.5-9.8-3.8-.4-7.6-1.1-8.5-1.6-.9-.4-3.6-4.1-5.9-8.1-23.8-40.4-61.4-79.1-102-104.9-34-21.6-71.7-36.4-111.7-43.9-13.8-2.5-36.3-5-46.5-5h-7.7l.5 2.7c.3 1.6 5.1 26.2 10.8 54.8l10.3 52-2.1 1.7c-3.7 3.1-12.8 6.9-17.6 7.5-16.8 2-26.6-15.6-27.7-49.7-.4-13-.2-17.6 1.7-28.5 2.4-14.1 9.5-37.2 15.4-49.9 2-4.4 3.5-8.1 3.3-8.2-.2-.2-5 2.3-10.8 5.5zM631.6 212.5c-1.8 4.7.3 22.5 3.7 31.5 5 13.4 18.3 29.5 29.6 35.8l4.1 2.2 4.7-6c10.8-13.7 20.1-31.9 24.5-47.8 1.1-4.1 1.8-7.5 1.6-7.7-.1-.1-14.2-2.2-31.3-4.4-17-2.3-32.2-4.4-33.6-4.7-1.9-.3-2.8 0-3.3 1.1z"/><path d="M617.4 318c-12.7 5.3-21.2 7.2-61.5 14-22 3.6-40 7.2-47.7 9.4-43.9 12.7-82.9 37.3-112.8 71.1-29.2 33-47.3 70.2-55.9 114.4-4.2 21.9-4.5 32.1-2.7 92.4 1.4 47.9 1.8 54.7 3.2 54.7 9.6-.1 35.4-4.4 53.5-9 89.1-22.7 162.2-81.2 204-163.5 15.6-30.7 25.2-61.1 31-98.5 3.7-23.5 2.7-89.5-1.3-88.9-.4 0-4.8 1.8-9.8 3.9z"/></svg>